g Dome
v 1.112695 -0.1751443 -1.925242
v 0.7478045 0.0854475 -2.131971
v 0.5799465 -0.1754327 -2.218539
v 0.9204985 0.4272266 -1.922032
v 1.34893 0.1624986 -1.665286
v 1.735633 -0.1759164 -1.241112
v 1.741937 0.371244 -1.008118
v 1.435388 0.5400352 -1.393132
v 1.619693 0.8125302 -0.7506061
v 1.358252 0.9219809 -1.1247
v 1.096578 0.9622172 -1.374412
v 1.049509 0.7466862 -1.642959
v 2.002516 -0.1756699 -0.5935665
v 1.952395 0.2666194 -0.5345902
v 2.090399 -0.1745134 -0.008304483
v 2.032327 0.2291612 -0.01548821
v 1.909469 0.5271368 -0.01952468
v 1.821757 0.6664926 -0.3451692
v 1.942549 0.2656613 0.5040037
v 1.82141 0.6664926 0.3048659
v 1.605044 0.8125302 0.7109907
v 1.718827 0.3733136 0.9796541
v 1.99206 -0.1752095 0.5769904
v 1.712019 -0.1763768 1.227617
v 1.315233 0.1627079 1.649464
v 1.096058 -0.1748917 1.918001
v 0.8826761 0.4305071 1.90473
v 0.7216975 0.09213081 2.120232
v 0.565852 -0.1745056 2.212505
v 1.400586 0.5403267 1.368974
v 1.003974 0.7484567 1.62129
v 1.054018 0.9628373 1.34805
v 1.325618 0.9215623 1.093625
v 1.07859 1.257308 0.8475242
v 0.8029631 1.190529 1.296149
v 1.355643 1.179672 0.3919276
v 0.7005066 1.530189 0.6514773
v 0.9415608 1.517715 -0.01430764
v 0.31027 1.757964 -0.004374696
v 0.7175706 1.530189 -0.6724241
v 1.355643 1.179308 -0.4312958
v 1.098002 1.257753 -0.8786185
v 0.46692 1.432185 -1.187648
v 0.8431653 1.194095 -1.320429
v 0.6018467 0.9785325 -1.710542
v 0.4024348 0.6513246 -2.026394
v 0.1541364 1.21123 -1.611891
v -0.2472759 1.433688 -1.370307
v 0.06558371 1.603082 -1.01123
v -0.2555949 1.689829 -0.8415099
v -0.5706429 1.611209 -1.004594
v -0.6475348 1.211833 -1.601657
v -0.2459975 0.8561291 -1.995737
v -0.9015158 0.6526144 -2.013074
v -0.2548787 0.3111934 -2.276658
v -0.7833978 0.2548883 -2.237924
v -1.427396 0.4296792 -1.908606
v -1.26345 0.0920626 -2.1227
v -1.104575 -0.1744436 -2.213531
v -0.7484232 -0.1749118 -2.328844
v -0.2634983 -0.1742188 -2.373899
v -1.098067 0.9812688 -1.693712
v -0.9692178 1.433176 -1.172255
v -1.347298 1.194846 -1.299843
v -1.601723 0.9659907 -1.353344
v -1.550865 0.7452754 -1.6262
v 0.2715804 0.2541597 -2.246249
v 0.2221753 -0.1748948 -2.332706
v -1.619703 1.257308 -0.8496892
v -1.876273 0.921984 -1.100321
v -2.158949 0.8125302 -0.7192298
v -1.895762 1.179672 -0.3936202
v -1.235239 1.530189 -0.6506115
v -0.7685247 1.720053 -0.5260993
v -0.2608709 1.794746 -0.485849
v 0.2505403 1.720053 -0.5375931
v -0.2642737 1.840588 0.001901119
v 0.2390487 1.720069 0.5294615
v 0.4299642 1.433201 1.170973
v 0.03827957 1.611232 1.006584
v -0.274981 1.689847 0.8443484
v -0.266937 1.794759 0.4900022
v -0.2920936 1.433688 1.368971
v -0.594219 1.603082 1.01499
v -0.991432 1.432185 1.193367
v -0.6907201 1.200316 1.611875
v 0.1016951 1.211833 1.597247
v -0.2964199 0.850993 1.992953
v -0.938922 0.6431499 2.026427
v -1.132482 0.9785325 1.713353
v -1.454375 0.4280777 1.923304
v -1.576028 0.7486985 1.647723
v -1.620315 0.9654589 1.380497
v -1.366846 1.194095 1.326544
v -0.2844963 0.3073115 2.27532
v -0.8076634 0.2465152 2.246472
v -0.2730539 -0.1742607 2.373899
v -0.7574823 -0.1749071 2.333301
v -1.115118 -0.1754901 2.219196
v -1.282975 0.08856048 2.132629
v 0.3555377 0.6526144 2.0086
v 0.2413695 0.2538295 2.235324
v 0.2103741 -0.1749382 2.328137
v 0.550363 0.9812362 1.688418
v -1.647864 -0.1751505 1.9259
v -1.881882 0.1630505 1.666996
v -2.269955 -0.1759707 1.242172
v -2.277977 0.3734826 1.008361
v -1.966094 0.5413189 1.395909
v -2.158949 0.8125302 0.7493232
v -1.884232 0.9219809 1.129721
v -2.54113 -0.1756699 0.5925882
v -2.494406 0.2666194 0.5320008
v -2.631608 -0.1745134 0.006095134
v -2.577365 0.2291612 0.01146056
v -2.455181 0.5271368 0.01517836
v -2.367756 0.6664926 0.3406854
v -1.625628 1.257753 0.8828577
v -1.24181 1.530189 0.6782718
v -1.895762 1.179308 0.4296032
v -1.479522 1.517715 0.01363985
v -0.8403563 1.757964 0.00744616
v -0.7774253 1.720053 0.5421855
v -2.155958 0.9790813 0.01799166
v -2.367756 0.6664926 -0.3095148
v -2.494403 0.2656613 -0.5112684
v -2.27068 0.3736857 -0.9869188
v -1.948131 0.5415747 -1.374192
v -1.860372 0.1631389 -1.653539
v -2.259509 -0.1763598 -1.232808
v -1.636248 -0.1748405 -1.919726
v -2.540751 -0.1752141 -0.5827528
v 1.608253 0.9789991 -0.02328563
v 0.565852 -0.1745056 2.212505
v -0.2675847 -0.172467 0.0003283957
v 0.2103741 -0.1749382 2.328137
v -0.2730539 -0.1742607 2.373899
v -0.7574823 -0.1749071 2.333301
v -1.115118 -0.1754901 2.219196
v -1.647864 -0.1751505 1.9259
v -2.269955 -0.1759707 1.242172
v -2.54113 -0.1756699 0.5925882
v -2.631608 -0.1745134 0.006095134
v -2.540751 -0.1752141 -0.5827528
v -2.259509 -0.1763598 -1.232808
v -1.636248 -0.1748405 -1.919726
v -1.104575 -0.1744436 -2.213531
v -0.7484232 -0.1749118 -2.328844
v -0.2634983 -0.1742188 -2.373899
v 0.2221753 -0.1748948 -2.332706
v 0.5799465 -0.1754327 -2.218539
v 1.112695 -0.1751443 -1.925242
v 1.735633 -0.1759164 -1.241112
v 2.002516 -0.1756699 -0.5935665
v 2.090399 -0.1745134 -0.008304483
v 1.99206 -0.1752095 0.5769904
v 1.712019 -0.1763768 1.227617
v 1.096058 -0.1748917 1.918001
vt 0.665579 0.577044
vt 0.617549 0.542144
vt 0.599673 0.570109
vt 0.646768 0.510508
vt 0.70323 0.541594
vt 0.749221 0.569132
vt 0.760036 0.507835
vt 0.715418 0.502301
vt 0.761345 0.463595
vt 0.720848 0.464681
vt 0.690724 0.464128
vt 0.672419 0.484187
vt 0.815821 0.550386
vt 0.808831 0.499081
vt 0.877662 0.512832
vt 0.857228 0.476579
vt 0.836252 0.45276
vt 0.802653 0.459311
vt 0.892417 0.431115
vt 0.846724 0.420447
vt 0.854047 0.377702
vt 0.904584 0.375813
vt 0.940924 0.453804
vt 0.974101 0.366952
vt 0.937265 0.29632
vt 0.973852 0.251344
vt 0.901279 0.249331
vt 0.927144 0.211729
vt 0.946945 0.177676
vt 0.896595 0.323396
vt 0.87265 0.281184
vt 0.851055 0.302845
vt 0.854105 0.334772
vt 0.813241 0.333331
vt 0.823427 0.292411
vt 0.806101 0.37578
vt 0.773713 0.323092
vt 0.752648 0.371122
vt 0.71493 0.337282
vt 0.704977 0.394097
vt 0.75927 0.42136
vt 0.717645 0.429285
vt 0.66403 0.410642
vt 0.678657 0.441345
vt 0.641996 0.458549
vt 0.607288 0.4817
vt 0.621702 0.423967
vt 0.612637 0.385847
vt 0.65085 0.379123
vt 0.641801 0.354182
vt 0.615247 0.348126
vt 0.571591 0.382646
vt 0.567453 0.437237
vt 0.511705 0.407934
vt 0.531494 0.481869
vt 0.486071 0.447523
vt 0.467282 0.372594
vt 0.442355 0.410953
vt 0.422957 0.446074
vt 0.452344 0.48649
vt 0.498603 0.526991
vt 0.530432 0.367819
vt 0.579836 0.338833
vt 0.544292 0.327854
vt 0.516332 0.318037
vt 0.494846 0.340309
vt 0.576466 0.515574
vt 0.551967 0.554651
vt 0.553079 0.286368
vt 0.512088 0.286181
vt 0.510322 0.242652
vt 0.558741 0.242686
vt 0.593075 0.296001
vt 0.628949 0.31266
vt 0.65989 0.334798
vt 0.685142 0.362122
vt 0.683593 0.309268
vt 0.738235 0.306108
vt 0.787877 0.280532
vt 0.752522 0.270656
vt 0.725819 0.264015
vt 0.70746 0.283774
vt 0.755914 0.231498
vt 0.71695 0.237982
vt 0.703807 0.203806
vt 0.748111 0.190175
vt 0.797373 0.236057
vt 0.804208 0.17903
vt 0.766503 0.127503
vt 0.727999 0.151368
vt 0.725772 0.088624
vt 0.696349 0.119659
vt 0.676246 0.142936
vt 0.688932 0.169648
vt 0.843832 0.135792
vt 0.802611 0.097032
vt 0.880681 0.09546
vt 0.834531 0.059726
vt 0.792692 0.037291
vt 0.760946 0.059656
vt 0.858324 0.212407
vt 0.885645 0.17373
vt 0.920548 0.138071
vt 0.83817 0.252378
vt 0.717808 0.017572
vt 0.67656 0.05683
vt 0.60527 0.025429
vt 0.59986 0.093819
vt 0.652459 0.098987
vt 0.600215 0.14427
vt 0.643871 0.141878
vt 0.522655 0.059483
vt 0.545069 0.107449
vt 0.462083 0.108558
vt 0.498004 0.141346
vt 0.522567 0.163739
vt 0.556593 0.153048
vt 0.648051 0.18259
vt 0.661619 0.221326
vt 0.60478 0.192338
vt 0.613214 0.245966
vt 0.652013 0.280969
vt 0.681988 0.255268
vt 0.559731 0.197536
vt 0.515042 0.198536
vt 0.468356 0.191158
vt 0.460059 0.246999
vt 0.470111 0.298763
vt 0.430437 0.32684
vt 0.392305 0.258672
vt 0.39496 0.371939
vt 0.418713 0.17333
vt 0.802908 0.418515
vt 0.238432 0.454292
vt 0.280549 0.718425
vt 0.280549 0.449968
vt 0.335474 0.456546
vt 0.388415 0.472591
vt 0.425246 0.493474
vt 0.47718 0.538112
vt 0.530328 0.628144
vt 0.545748 0.70642
vt 0.542427 0.773351
vt 0.518575 0.835975
vt 0.473003 0.901459
vt 0.38816 0.962549
vt 0.322666 0.982558
vt 0.280549 0.986883
vt 0.225623 0.980304
vt 0.172682 0.964259
vt 0.135852 0.943377
vt 0.083917 0.898738
vt 0.03077 0.808706
vt 0.01535 0.73043
vt 0.01867 0.663499
vt 0.042522 0.600875
vt 0.088094 0.535391
vt 0.172938 0.474301
vn 0.629366 0.108346 -0.769519
vn 0.4332277 0.1962109 -0.8796675
vn 0.347966 0.096889 -0.9324871
vn 0.4902639 0.3624609 -0.7926308
vn 0.7143837 0.1797489 -0.6762738
vn 0.8474963 0.1647691 -0.5045802
vn 0.856833 0.294924 -0.422915
vn 0.7386687 0.3726069 -0.5617228
vn 0.7748966 0.5673547 -0.2786469
vn 0.6783219 0.6098219 -0.4098739
vn 0.5464711 0.6404181 -0.539661
vn 0.5302656 0.5069566 -0.6795685
vn 0.9491189 0.143492 -0.280327
vn 0.9335929 0.258156 -0.248515
vn 0.9902294 0.1390481 0.010543
vn 0.970363 0.24149 0.008837999
vn 0.8996578 0.4365749 0.004259999
vn 0.8464099 0.512673 -0.144072
vn 0.9276197 0.2621599 0.2660709
vn 0.8430928 0.5134959 0.159739
vn 0.7695168 0.5652548 0.2972049
vn 0.8478198 0.3048539 0.4338959
vn 0.9417502 0.154628 0.2986581
vn 0.8399712 0.1848041 0.5101921
vn 0.71334 0.208408 0.669113
vn 0.633597 0.145004 0.759953
vn 0.4890789 0.3844099 0.7829628
vn 0.433886 0.225313 0.87234
vn 0.354236 0.12425 0.926865
vn 0.730168 0.385391 0.564206
vn 0.5261298 0.5204138 0.6725748
vn 0.5424311 0.6407301 0.543354
vn 0.6709968 0.6075628 0.4250069
vn 0.5368769 0.7872439 0.303332
vn 0.4166433 0.7533416 0.5088074
vn 0.6352278 0.7591507 0.142042
vn 0.403667 0.8860581 0.227934
vn 0.4830407 0.8755875 0.004255998
vn 0.2669801 0.9636953 0.003603001
vn 0.4016909 0.8895959 -0.217402
vn 0.633524 0.7626191 -0.130612
vn 0.5374549 0.7936208 -0.2851459
vn 0.2738471 0.8485413 -0.4527532
vn 0.4116869 0.7609367 -0.5014868
vn 0.2998959 0.6463639 -0.7016239
vn 0.2295781 0.5089732 -0.8296024
vn 0.131952 0.7391071 -0.6605371
vn -0.004427002 0.8225904 -0.5686173
vn 0.140811 0.906926 -0.397061
vn 0.003149999 0.9437916 -0.3305259
vn -0.148567 0.904418 -0.399945
vn -0.142808 0.7377878 -0.6597538
vn -0.007590997 0.5945688 -0.8040088
vn -0.236033 0.5155469 -0.8237109
vn -0.008089 0.354948 -0.9348511
vn -0.198437 0.3292089 -0.9231707
vn -0.488652 0.379889 -0.785432
vn -0.4332811 0.218665 -0.8743301
vn -0.3525219 0.117008 -0.9284598
vn -0.1759781 0.1900021 -0.9658834
vn -0.007111003 0.1956131 -0.9806554
vn -0.302483 0.648816 -0.698242
vn -0.2809939 0.8443099 -0.4562709
vn -0.4107681 0.7608482 -0.5023741
vn -0.5400761 0.64195 -0.5442591
vn -0.5253351 0.5162211 -0.6764162
vn 0.190951 0.318193 -0.9285961
vn 0.1685539 0.1760209 -0.9698486
vn -0.5308578 0.7942898 -0.2954549
vn -0.6659859 0.61342 -0.4244749
vn -0.7663719 0.5712039 -0.293939
vn -0.6269438 0.7665117 -0.139289
vn -0.3994551 0.8885722 -0.2255551
vn -0.2374349 0.9528626 -0.1888849
vn -0.001800999 0.9855827 -0.1691849
vn 0.233657 0.9543712 -0.1859571
vn -9.5E-05 1 8E-05
vn 0.2397321 0.9520223 0.190216
vn 0.2850228 0.8395565 0.4625007
vn 0.1502489 0.9021595 0.4043927
vn -0.002838001 0.9433863 0.3316841
vn 0.002282001 0.9855542 0.1693451
vn 0.002466999 0.8165178 0.5773149
vn -0.1401991 0.9070103 0.3970852
vn -0.2714119 0.8475616 0.4560428
vn -0.127863 0.7344348 0.6665258
vn 0.140765 0.7352011 0.6630721
vn 0.005797997 0.5955657 0.8032857
vn -0.2255691 0.5086873 0.8308765
vn -0.2885759 0.6464617 0.7062657
vn -0.4892139 0.363375 0.7928609
vn -0.5293571 0.508411 0.6791901
vn -0.545391 0.6428609 0.537846
vn -0.4094207 0.7628695 0.5004047
vn 0.00864 0.358489 0.9334939
vn -0.188906 0.3200629 0.9283718
vn 0.009037996 0.2000479 0.9797444
vn -0.167654 0.179751 0.9693202
vn -0.3479832 0.09698804 0.9324704
vn -0.431943 0.197936 0.8799129
vn 0.2356099 0.5180858 0.8222378
vn 0.1995211 0.3341811 0.9211484
vn 0.177879 0.19589 0.9643579
vn 0.303353 0.6485768 0.6980868
vn -0.6299628 0.108502 0.7690087
vn -0.7143599 0.180743 0.6760339
vn -0.8463429 0.163969 0.5067719
vn -0.8545594 0.2946081 0.4277082
vn -0.735505 0.376714 0.5631331
vn -0.7695689 0.570126 0.287611
vn -0.6725084 0.6133794 0.4141233
vn -0.9479892 0.139425 0.2861421
vn -0.9328256 0.253794 0.2557829
vn -0.9914693 0.130334 -0.001245
vn -0.9718908 0.235432 0.000104
vn -0.9003914 0.4350807 0.0002269999
vn -0.8458209 0.5115209 0.151438
vn -0.5334419 0.7948739 0.289163
vn -0.3988879 0.8902427 0.2199009
vn -0.6279387 0.7660658 0.137245
vn -0.4792889 0.8776557 -0.001582
vn -0.2655641 0.9640912 -0.001943
vn -0.233913 0.9542799 0.186104
vn -0.7231568 0.6906838 0.0002639999
vn -0.845118 0.5131041 -0.149999
vn -0.9305187 0.2583449 -0.2596009
vn -0.8468632 0.3005421 -0.4387451
vn -0.7265789 0.3835779 -0.5700449
vn -0.709635 0.202664 -0.674793
vn -0.8381183 0.1782321 -0.5155492
vn -0.6302099 0.137387 -0.7641729
vn -0.9443694 0.1463241 -0.2945431
vn 0.72859 0.684943 0.003116
vn 0.0008169999 -0.9999989 -0.001228
vn 0.0008169999 -0.9999989 -0.001228
vn 0.0008169999 -0.9999989 -0.001228
vn -0.001472999 -0.9999987 -0.0007599998
vn 0.001398 -0.9999988 -0.0007529999
vn 0.00184 -0.9999981 -0.0006610001
vn 0.001594 -0.9999987 -0.000254
vn 0.001162 -0.9999989 -0.000945
vn 0.001162 -0.9999989 -0.000945
vn 0.0008610004 -0.9999975 -0.002108001
vn 0.0006809998 -0.9999977 0.002056999
vn 0.0006809998 -0.9999977 0.002056999
vn 0.001026 -0.9999994 0.0005070003
vn -0.0009139999 -0.9999988 0.001236
vn -0.0009139999 -0.9999988 0.001236
vn 0.001498 -0.9999987 0.0007409998
vn -0.001454 -0.9999987 0.0007349997
vn -0.00172 -0.9999983 0.0006830002
vn -0.001548 -0.9999988 0.0002819999
vn -0.001184 -0.9999989 0.0008669999
vn -0.001184 -0.9999989 0.0008669999
vn -0.0008600004 -0.9999975 0.002103001
vn -0.0006809998 -0.9999976 -0.002088
vn -0.0006809998 -0.9999976 -0.002088
vn -0.001025 -0.9999994 -0.0005370002
g Dome_0
f 3/3/3 2/2/2 1/1/1
f 4/4/4 1/1/1 2/2/2
f 4/4/4 5/5/5 1/1/1
f 6/6/6 1/1/1 5/5/5
f 5/5/5 7/7/7 6/6/6
f 5/5/5 8/8/8 7/7/7
f 4/4/4 8/8/8 5/5/5
f 9/9/9 7/7/7 8/8/8
f 9/9/9 8/8/8 10/10/10
f 11/11/11 10/10/10 8/8/8
f 11/11/11 8/8/8 12/12/12
f 4/4/4 12/12/12 8/8/8
f 7/7/7 13/13/13 6/6/6
f 7/7/7 14/14/14 13/13/13
f 9/9/9 14/14/14 7/7/7
f 15/15/15 13/13/13 14/14/14
f 15/15/15 14/14/14 16/16/16
f 17/17/17 16/16/16 14/14/14
f 17/17/17 14/14/14 18/18/18
f 9/9/9 18/18/18 14/14/14
f 17/17/17 19/19/19 16/16/16
f 15/15/15 16/16/16 19/19/19
f 17/17/17 20/20/20 19/19/19
f 21/21/21 19/19/19 20/20/20
f 21/21/21 22/22/22 19/19/19
f 23/23/23 19/19/19 22/22/22
f 15/15/15 19/19/19 23/23/23
f 23/23/23 22/22/22 24/24/24
f 22/22/22 25/25/25 24/24/24
f 24/24/24 25/25/25 26/26/26
f 27/27/27 26/26/26 25/25/25
f 27/27/27 28/28/28 26/26/26
f 29/29/29 26/26/26 28/28/28
f 27/27/27 25/25/25 30/30/30
f 22/22/22 30/30/30 25/25/25
f 21/21/21 30/30/30 22/22/22
f 27/27/27 30/30/30 31/31/31
f 32/32/32 31/31/31 30/30/30
f 32/32/32 30/30/30 33/33/33
f 21/21/21 33/33/33 30/30/30
f 32/32/32 33/33/33 34/34/34
f 21/21/21 34/34/34 33/33/33
f 32/32/32 34/34/34 35/35/35
f 21/21/21 36/36/36 34/34/34
f 37/37/37 34/34/34 36/36/36
f 37/37/37 36/36/36 38/38/38
f 39/39/39 37/37/37 38/38/38
f 40/40/40 39/39/39 38/38/38
f 41/41/41 40/40/40 38/38/38
f 36/36/36 41/41/41 38/38/38
f 41/41/41 42/42/42 40/40/40
f 43/43/43 40/40/40 42/42/42
f 43/43/43 42/42/42 44/44/44
f 43/43/43 44/44/44 45/45/45
f 11/11/11 45/45/45 44/44/44
f 11/11/11 44/44/44 42/42/42
f 11/11/11 12/12/12 45/45/45
f 4/4/4 45/45/45 12/12/12
f 4/4/4 46/46/46 45/45/45
f 47/47/47 45/45/45 46/46/46
f 43/43/43 45/45/45 47/47/47
f 43/43/43 47/47/47 48/48/48
f 43/43/43 48/48/48 49/49/49
f 50/50/50 49/49/49 48/48/48
f 50/50/50 48/48/48 51/51/51
f 52/52/52 48/48/48 47/47/47
f 52/52/52 47/47/47 53/53/53
f 47/47/47 46/46/46 53/53/53
f 54/54/54 52/52/52 53/53/53
f 55/55/55 54/54/54 53/53/53
f 46/46/46 55/55/55 53/53/53
f 55/55/55 56/56/56 54/54/54
f 57/57/57 54/54/54 56/56/56
f 57/57/57 56/56/56 58/58/58
f 59/59/59 58/58/58 56/56/56
f 59/59/59 56/56/56 60/60/60
f 61/61/61 56/56/56 55/55/55
f 61/61/61 60/60/60 56/56/56
f 54/54/54 62/62/62 52/52/52
f 57/57/57 62/62/62 54/54/54
f 63/63/63 52/52/52 62/62/62
f 63/63/63 48/48/48 52/52/52
f 63/63/63 51/51/51 48/48/48
f 63/63/63 62/62/62 64/64/64
f 65/65/65 64/64/64 62/62/62
f 65/65/65 62/62/62 66/66/66
f 57/57/57 66/66/66 62/62/62
f 61/61/61 55/55/55 67/67/67
f 61/61/61 67/67/67 68/68/68
f 3/3/3 68/68/68 67/67/67
f 3/3/3 67/67/67 2/2/2
f 46/46/46 67/67/67 55/55/55
f 4/4/4 67/67/67 46/46/46
f 4/4/4 2/2/2 67/67/67
f 65/65/65 69/69/69 64/64/64
f 63/63/63 64/64/64 69/69/69
f 65/65/65 70/70/70 69/69/69
f 71/71/71 69/69/69 70/70/70
f 71/71/71 72/72/72 69/69/69
f 73/73/73 69/69/69 72/72/72
f 63/63/63 69/69/69 73/73/73
f 63/63/63 73/73/73 74/74/74
f 63/63/63 74/74/74 51/51/51
f 50/50/50 51/51/51 74/74/74
f 50/50/50 74/74/74 75/75/75
f 50/50/50 75/75/75 76/76/76
f 50/50/50 76/76/76 49/49/49
f 77/77/77 76/76/76 75/75/75
f 77/77/77 75/75/75 74/74/74
f 77/77/77 39/39/39 76/76/76
f 40/40/40 76/76/76 39/39/39
f 43/43/43 76/76/76 40/40/40
f 43/43/43 49/49/49 76/76/76
f 77/77/77 78/78/78 39/39/39
f 39/39/39 78/78/78 37/37/37
f 79/79/79 37/37/37 78/78/78
f 79/79/79 78/78/78 80/80/80
f 81/81/81 80/80/80 78/78/78
f 81/81/81 78/78/78 82/82/82
f 77/77/77 82/82/82 78/78/78
f 79/79/79 34/34/34 37/37/37
f 79/79/79 35/35/35 34/34/34
f 81/81/81 83/83/83 80/80/80
f 79/79/79 80/80/80 83/83/83
f 81/81/81 84/84/84 83/83/83
f 85/85/85 83/83/83 84/84/84
f 85/85/85 86/86/86 83/83/83
f 87/87/87 83/83/83 86/86/86
f 79/79/79 83/83/83 87/87/87
f 87/87/87 86/86/86 88/88/88
f 86/86/86 89/89/89 88/88/88
f 86/86/86 90/90/90 89/89/89
f 85/85/85 90/90/90 86/86/86
f 91/91/91 89/89/89 90/90/90
f 91/91/91 90/90/90 92/92/92
f 93/93/93 92/92/92 90/90/90
f 93/93/93 90/90/90 94/94/94
f 85/85/85 94/94/94 90/90/90
f 89/89/89 95/95/95 88/88/88
f 89/89/89 96/96/96 95/95/95
f 91/91/91 96/96/96 89/89/89
f 97/97/97 95/95/95 96/96/96
f 97/97/97 96/96/96 98/98/98
f 99/99/99 98/98/98 96/96/96
f 99/99/99 96/96/96 100/100/100
f 91/91/91 100/100/100 96/96/96
f 95/95/95 101/101/101 88/88/88
f 101/101/101 87/87/87 88/88/88
f 95/95/95 102/102/102 101/101/101
f 97/97/97 102/102/102 95/95/95
f 27/27/27 101/101/101 102/102/102
f 27/27/27 102/102/102 28/28/28
f 29/29/29 28/28/28 102/102/102
f 29/29/29 102/102/102 103/103/103
f 97/97/97 103/103/103 102/102/102
f 27/27/27 104/104/104 101/101/101
f 101/101/101 104/104/104 87/87/87
f 79/79/79 87/87/87 104/104/104
f 79/79/79 104/104/104 35/35/35
f 32/32/32 35/35/35 104/104/104
f 32/32/32 104/104/104 31/31/31
f 27/27/27 31/31/31 104/104/104
f 99/99/99 100/100/100 105/105/105
f 91/91/91 105/105/105 100/100/100
f 91/91/91 106/106/106 105/105/105
f 107/107/107 105/105/105 106/106/106
f 106/106/106 108/108/108 107/107/107
f 106/106/106 109/109/109 108/108/108
f 91/91/91 109/109/109 106/106/106
f 110/110/110 108/108/108 109/109/109
f 110/110/110 109/109/109 111/111/111
f 93/93/93 111/111/111 109/109/109
f 93/93/93 109/109/109 92/92/92
f 91/91/91 92/92/92 109/109/109
f 108/108/108 112/112/112 107/107/107
f 108/108/108 113/113/113 112/112/112
f 110/110/110 113/113/113 108/108/108
f 114/114/114 112/112/112 113/113/113
f 114/114/114 113/113/113 115/115/115
f 116/116/116 115/115/115 113/113/113
f 116/116/116 113/113/113 117/117/117
f 110/110/110 117/117/117 113/113/113
f 93/93/93 118/118/118 111/111/111
f 110/110/110 111/111/111 118/118/118
f 93/93/93 94/94/94 118/118/118
f 85/85/85 118/118/118 94/94/94
f 85/85/85 119/119/119 118/118/118
f 120/120/120 118/118/118 119/119/119
f 110/110/110 118/118/118 120/120/120
f 120/120/120 119/119/119 121/121/121
f 119/119/119 122/122/122 121/121/121
f 119/119/119 123/123/123 122/122/122
f 85/85/85 123/123/123 119/119/119
f 77/77/77 122/122/122 123/123/123
f 77/77/77 123/123/123 82/82/82
f 81/81/81 82/82/82 123/123/123
f 81/81/81 123/123/123 84/84/84
f 85/85/85 84/84/84 123/123/123
f 122/122/122 73/73/73 121/121/121
f 122/122/122 74/74/74 73/73/73
f 77/77/77 74/74/74 122/122/122
f 73/73/73 72/72/72 121/121/121
f 72/72/72 120/120/120 121/121/121
f 72/72/72 124/124/124 120/120/120
f 110/110/110 120/120/120 124/124/124
f 110/110/110 124/124/124 117/117/117
f 116/116/116 117/117/117 124/124/124
f 116/116/116 124/124/124 125/125/125
f 71/71/71 124/124/124 72/72/72
f 71/71/71 125/125/125 124/124/124
f 116/116/116 125/125/125 126/126/126
f 71/71/71 126/126/126 125/125/125
f 116/116/116 126/126/126 115/115/115
f 71/71/71 127/127/127 126/126/126
f 71/71/71 128/128/128 127/127/127
f 127/127/127 128/128/128 129/129/129
f 57/57/57 129/129/129 128/128/128
f 57/57/57 128/128/128 66/66/66
f 65/65/65 66/66/66 128/128/128
f 65/65/65 128/128/128 70/70/70
f 71/71/71 70/70/70 128/128/128
f 127/127/127 129/129/129 130/130/130
f 130/130/130 129/129/129 131/131/131
f 57/57/57 131/131/131 129/129/129
f 57/57/57 58/58/58 131/131/131
f 59/59/59 131/131/131 58/58/58
f 132/132/132 127/127/127 130/130/130
f 132/132/132 126/126/126 127/127/127
f 114/114/114 126/126/126 132/132/132
f 114/114/114 115/115/115 126/126/126
f 11/11/11 42/42/42 10/10/10
f 9/9/9 10/10/10 42/42/42
f 9/9/9 42/42/42 41/41/41
f 9/9/9 41/41/41 133/133/133
f 9/9/9 133/133/133 18/18/18
f 17/17/17 18/18/18 133/133/133
f 17/17/17 133/133/133 20/20/20
f 36/36/36 133/133/133 41/41/41
f 21/21/21 133/133/133 36/36/36
f 21/21/21 20/20/20 133/133/133
f 136/136/136 135/135/135 134/134/134
f 137/137/137 135/135/135 136/136/136
f 138/138/138 135/135/135 137/137/137
f 139/139/139 135/135/135 138/138/138
f 140/140/140 135/135/135 139/139/139
f 141/141/141 135/135/135 140/140/140
f 142/142/142 135/135/135 141/141/141
f 143/143/143 135/135/135 142/142/142
f 144/144/144 135/135/135 143/143/143
f 145/145/145 135/135/135 144/144/144
f 146/146/146 135/135/135 145/145/145
f 147/147/147 135/135/135 146/146/146
f 148/148/148 135/135/135 147/147/147
f 149/149/149 135/135/135 148/148/148
f 150/150/150 135/135/135 149/149/149
f 151/151/151 135/135/135 150/150/150
f 152/152/152 135/135/135 151/151/151
f 153/153/153 135/135/135 152/152/152
f 154/154/154 135/135/135 153/153/153
f 155/155/155 135/135/135 154/154/154
f 156/156/156 135/135/135 155/155/155
f 157/157/157 135/135/135 156/156/156
f 158/158/158 135/135/135 157/157/157
f 134/134/134 135/135/135 158/158/158
